# xmcd CD database file
#
# Track frame offsets:
#	150
#	37441
#	66588
#
# Disc length: 1312 seconds
#
# Revision: 0
# Processed by: cddbd v1.5.1PL2 Copyright (c) Steve Scherf et al.
# Submitted via: CDex 1.51
#
DISCID=2f051e03
DTITLE=Mantra Girl - Trinity
DYEAR=2006
DGENRE=New Age
TTITLE0=Wahe Guru
TTITLE1=Sa Re Sa Sa
TTITLE2=Loka Samasta Sukhino Bhavantu
EXTD=YEAR: 2006
EXTT0=
EXTT1=
EXTT2=
PLAYORDER=
